<svg width="31" height="20" viewBox="0 0 31 20" fill="none" xmlns="http://www.w3.org/2000/svg">
<path fill-rule="evenodd" clip-rule="evenodd" d="M11.5858 8.36421C10.8047 9.14525 10.8047 10.4116 11.5858 11.1926L15.4749 15.0817L11.1924 19.3642C10.4113 20.1453 9.14501 20.1453 8.36396 19.3642L0.585786 11.586C-0.195262 10.805 -0.195262 9.53865 0.585786 8.7576L8.36396 0.97943C9.14501 0.198381 10.4113 0.198381 11.1924 0.97943L15.0815 4.86852L11.5858 8.36421ZM15.0815 4.86852L19.364 0.58603C20.145 -0.195018 21.4113 -0.195018 22.1924 0.586031L29.9706 8.36421C30.7516 9.14525 30.7516 10.4116 29.9706 11.1926L22.1924 18.9708C21.4113 19.7519 20.145 19.7519 19.364 18.9708L15.4749 15.0817L18.9706 11.586C19.7516 10.805 19.7516 9.53865 18.9706 8.7576L15.0815 4.86852Z" fill="url(#paint0_linear_5101_1947)"/>
<defs>
<linearGradient id="paint0_linear_5101_1947" x1="5.67172" y1="5.77856" x2="13.1717" y2="13.7786" gradientUnits="userSpaceOnUse">
<stop stop-color="#FFAC28"/>
<stop offset="1" stop-color="#FFC328"/>
</linearGradient>
</defs>
</svg>
